<svg xmlns="http://www.w3.org/2000/svg" viewBox="0 0 1600 1000" width="1600" height="1000" preserveAspectRatio="xMidYMid slice">
  <defs>
    <linearGradient id="bgGrad" x1="0%" y1="0%" x2="60%" y2="100%">
      <stop offset="0%" stop-color="#0b1113"/>
      <stop offset="55%" stop-color="#050505"/>
      <stop offset="100%" stop-color="#020202"/>
    </linearGradient>
    <radialGradient id="glow1" cx="50%" cy="15%" r="60%">
      <stop offset="0%" stop-color="#69d5f5" stop-opacity="0.16"/>
      <stop offset="100%" stop-color="#69d5f5" stop-opacity="0"/>
    </radialGradient>
    <radialGradient id="glow2" cx="85%" cy="85%" r="50%">
      <stop offset="0%" stop-color="#69d5f5" stop-opacity="0.08"/>
      <stop offset="100%" stop-color="#69d5f5" stop-opacity="0"/>
    </radialGradient>
  </defs>
  <rect width="1600" height="1000" fill="url(#bgGrad)"/>
  <rect width="1600" height="1000" fill="url(#glow1)"/>
  <rect width="1600" height="1000" fill="url(#glow2)"/>
  <g>
<line x1="0" y1="0" x2="0" y2="1000" stroke="#69d5f5" stroke-width="1" opacity="0.05"/>
<line x1="80" y1="0" x2="80" y2="1000" stroke="#69d5f5" stroke-width="1" opacity="0.05"/>
<line x1="160" y1="0" x2="160" y2="1000" stroke="#69d5f5" stroke-width="1" opacity="0.05"/>
<line x1="240" y1="0" x2="240" y2="1000" stroke="#69d5f5" stroke-width="1" opacity="0.05"/>
<line x1="320" y1="0" x2="320" y2="1000" stroke="#69d5f5" stroke-width="1" opacity="0.05"/>
<line x1="400" y1="0" x2="400" y2="1000" stroke="#69d5f5" stroke-width="1" opacity="0.05"/>
<line x1="480" y1="0" x2="480" y2="1000" stroke="#69d5f5" stroke-width="1" opacity="0.05"/>
<line x1="560" y1="0" x2="560" y2="1000" stroke="#69d5f5" stroke-width="1" opacity="0.05"/>
<line x1="640" y1="0" x2="640" y2="1000" stroke="#69d5f5" stroke-width="1" opacity="0.05"/>
<line x1="720" y1="0" x2="720" y2="1000" stroke="#69d5f5" stroke-width="1" opacity="0.05"/>
<line x1="800" y1="0" x2="800" y2="1000" stroke="#69d5f5" stroke-width="1" opacity="0.05"/>
<line x1="880" y1="0" x2="880" y2="1000" stroke="#69d5f5" stroke-width="1" opacity="0.05"/>
<line x1="960" y1="0" x2="960" y2="1000" stroke="#69d5f5" stroke-width="1" opacity="0.05"/>
<line x1="1040" y1="0" x2="1040" y2="1000" stroke="#69d5f5" stroke-width="1" opacity="0.05"/>
<line x1="1120" y1="0" x2="1120" y2="1000" stroke="#69d5f5" stroke-width="1" opacity="0.05"/>
<line x1="1200" y1="0" x2="1200" y2="1000" stroke="#69d5f5" stroke-width="1" opacity="0.05"/>
<line x1="1280" y1="0" x2="1280" y2="1000" stroke="#69d5f5" stroke-width="1" opacity="0.05"/>
<line x1="1360" y1="0" x2="1360" y2="1000" stroke="#69d5f5" stroke-width="1" opacity="0.05"/>
<line x1="1440" y1="0" x2="1440" y2="1000" stroke="#69d5f5" stroke-width="1" opacity="0.05"/>
<line x1="1520" y1="0" x2="1520" y2="1000" stroke="#69d5f5" stroke-width="1" opacity="0.05"/>
<line x1="1600" y1="0" x2="1600" y2="1000" stroke="#69d5f5" stroke-width="1" opacity="0.05"/>
<line x1="0" y1="0" x2="1600" y2="0" stroke="#69d5f5" stroke-width="1" opacity="0.05"/>
<line x1="0" y1="80" x2="1600" y2="80" stroke="#69d5f5" stroke-width="1" opacity="0.05"/>
<line x1="0" y1="160" x2="1600" y2="160" stroke="#69d5f5" stroke-width="1" opacity="0.05"/>
<line x1="0" y1="240" x2="1600" y2="240" stroke="#69d5f5" stroke-width="1" opacity="0.05"/>
<line x1="0" y1="320" x2="1600" y2="320" stroke="#69d5f5" stroke-width="1" opacity="0.05"/>
<line x1="0" y1="400" x2="1600" y2="400" stroke="#69d5f5" stroke-width="1" opacity="0.05"/>
<line x1="0" y1="480" x2="1600" y2="480" stroke="#69d5f5" stroke-width="1" opacity="0.05"/>
<line x1="0" y1="560" x2="1600" y2="560" stroke="#69d5f5" stroke-width="1" opacity="0.05"/>
<line x1="0" y1="640" x2="1600" y2="640" stroke="#69d5f5" stroke-width="1" opacity="0.05"/>
<line x1="0" y1="720" x2="1600" y2="720" stroke="#69d5f5" stroke-width="1" opacity="0.05"/>
<line x1="0" y1="800" x2="1600" y2="800" stroke="#69d5f5" stroke-width="1" opacity="0.05"/>
<line x1="0" y1="880" x2="1600" y2="880" stroke="#69d5f5" stroke-width="1" opacity="0.05"/>
<line x1="0" y1="960" x2="1600" y2="960" stroke="#69d5f5" stroke-width="1" opacity="0.05"/>
  </g>
  <g>
<path d="M800,160 L960,160 L960,800" fill="none" stroke="#69d5f5" stroke-width="1.4" opacity="0.16"/>
<path d="M960,800 L80,800 L80,80" fill="none" stroke="#69d5f5" stroke-width="1.4" opacity="0.14"/>
<path d="M1360,80 L880,80 L880,720" fill="none" stroke="#69d5f5" stroke-width="1.4" opacity="0.13"/>
<path d="M880,720 L80,720 L80,640" fill="none" stroke="#69d5f5" stroke-width="1.4" opacity="0.09"/>
<path d="M80,640 L480,640 L480,0" fill="none" stroke="#69d5f5" stroke-width="1.4" opacity="0.15"/>
<path d="M480,0 L160,0 L160,480" fill="none" stroke="#69d5f5" stroke-width="1.4" opacity="0.11"/>
<path d="M1040,80 L560,80 L560,80" fill="none" stroke="#69d5f5" stroke-width="1.4" opacity="0.11"/>
<path d="M80,720 L240,720 L240,240" fill="none" stroke="#69d5f5" stroke-width="1.4" opacity="0.14"/>
<path d="M240,240 L1600,240 L1600,800" fill="none" stroke="#69d5f5" stroke-width="1.4" opacity="0.17"/>
<path d="M1440,0 L1440,0 L1440,720" fill="none" stroke="#69d5f5" stroke-width="1.4" opacity="0.18"/>
<path d="M1440,720 L960,720 L960,0" fill="none" stroke="#69d5f5" stroke-width="1.4" opacity="0.12"/>
<path d="M560,0 L1360,0 L1360,160" fill="none" stroke="#69d5f5" stroke-width="1.4" opacity="0.13"/>
<path d="M1360,160 L720,160 L720,480" fill="none" stroke="#69d5f5" stroke-width="1.4" opacity="0.15"/>
<circle cx="800" cy="160" r="3" fill="#69d5f5" opacity="0.37"/>
<circle cx="960" cy="800" r="3" fill="#69d5f5" opacity="0.46"/>
<circle cx="80" cy="80" r="4" fill="#69d5f5" opacity="0.27"/>
<circle cx="1360" cy="80" r="2" fill="#69d5f5" opacity="0.58"/>
<circle cx="880" cy="720" r="4" fill="#69d5f5" opacity="0.49"/>
<circle cx="80" cy="640" r="2" fill="#69d5f5" opacity="0.27"/>
<circle cx="480" cy="0" r="3" fill="#69d5f5" opacity="0.48"/>
<circle cx="160" cy="480" r="4" fill="#69d5f5" opacity="0.35"/>
<circle cx="1040" cy="80" r="4" fill="#69d5f5" opacity="0.56"/>
<circle cx="560" cy="80" r="3" fill="#69d5f5" opacity="0.26"/>
<circle cx="1360" cy="480" r="4" fill="#69d5f5" opacity="0.37"/>
<circle cx="80" cy="720" r="2" fill="#69d5f5" opacity="0.42"/>
<circle cx="240" cy="240" r="2" fill="#69d5f5" opacity="0.52"/>
<circle cx="1600" cy="800" r="2" fill="#69d5f5" opacity="0.51"/>
<circle cx="1440" cy="0" r="4" fill="#69d5f5" opacity="0.39"/>
<circle cx="1440" cy="720" r="4" fill="#69d5f5" opacity="0.28"/>
<circle cx="960" cy="0" r="4" fill="#69d5f5" opacity="0.39"/>
<circle cx="560" cy="0" r="3" fill="#69d5f5" opacity="0.56"/>
<circle cx="1360" cy="160" r="4" fill="#69d5f5" opacity="0.55"/>
<circle cx="720" cy="480" r="3" fill="#69d5f5" opacity="0.5"/>
<circle cx="320" cy="640" r="3" fill="#69d5f5" opacity="0.49"/>
<circle cx="240" cy="720" r="4" fill="#69d5f5" opacity="0.59"/>
  </g>
</svg>