<svg xmlns="http://www.w3.org/2000/svg" viewBox="0 0 1600 520" width="1600" height="520" preserveAspectRatio="xMidYMid slice">
  <defs>
    <linearGradient id="bgGrad" x1="0%" y1="0%" x2="60%" y2="100%">
      <stop offset="0%" stop-color="#0b1113"/>
      <stop offset="55%" stop-color="#050505"/>
      <stop offset="100%" stop-color="#020202"/>
    </linearGradient>
    <radialGradient id="glow1" cx="50%" cy="15%" r="60%">
      <stop offset="0%" stop-color="#69d5f5" stop-opacity="0.16"/>
      <stop offset="100%" stop-color="#69d5f5" stop-opacity="0"/>
    </radialGradient>
    <radialGradient id="glow2" cx="85%" cy="85%" r="50%">
      <stop offset="0%" stop-color="#69d5f5" stop-opacity="0.08"/>
      <stop offset="100%" stop-color="#69d5f5" stop-opacity="0"/>
    </radialGradient>
  </defs>
  <rect width="1600" height="520" fill="url(#bgGrad)"/>
  <rect width="1600" height="520" fill="url(#glow1)"/>
  <rect width="1600" height="520" fill="url(#glow2)"/>
  <g>
<line x1="0" y1="0" x2="0" y2="520" stroke="#69d5f5" stroke-width="1" opacity="0.045"/>
<line x1="80" y1="0" x2="80" y2="520" stroke="#69d5f5" stroke-width="1" opacity="0.045"/>
<line x1="160" y1="0" x2="160" y2="520" stroke="#69d5f5" stroke-width="1" opacity="0.045"/>
<line x1="240" y1="0" x2="240" y2="520" stroke="#69d5f5" stroke-width="1" opacity="0.045"/>
<line x1="320" y1="0" x2="320" y2="520" stroke="#69d5f5" stroke-width="1" opacity="0.045"/>
<line x1="400" y1="0" x2="400" y2="520" stroke="#69d5f5" stroke-width="1" opacity="0.045"/>
<line x1="480" y1="0" x2="480" y2="520" stroke="#69d5f5" stroke-width="1" opacity="0.045"/>
<line x1="560" y1="0" x2="560" y2="520" stroke="#69d5f5" stroke-width="1" opacity="0.045"/>
<line x1="640" y1="0" x2="640" y2="520" stroke="#69d5f5" stroke-width="1" opacity="0.045"/>
<line x1="720" y1="0" x2="720" y2="520" stroke="#69d5f5" stroke-width="1" opacity="0.045"/>
<line x1="800" y1="0" x2="800" y2="520" stroke="#69d5f5" stroke-width="1" opacity="0.045"/>
<line x1="880" y1="0" x2="880" y2="520" stroke="#69d5f5" stroke-width="1" opacity="0.045"/>
<line x1="960" y1="0" x2="960" y2="520" stroke="#69d5f5" stroke-width="1" opacity="0.045"/>
<line x1="1040" y1="0" x2="1040" y2="520" stroke="#69d5f5" stroke-width="1" opacity="0.045"/>
<line x1="1120" y1="0" x2="1120" y2="520" stroke="#69d5f5" stroke-width="1" opacity="0.045"/>
<line x1="1200" y1="0" x2="1200" y2="520" stroke="#69d5f5" stroke-width="1" opacity="0.045"/>
<line x1="1280" y1="0" x2="1280" y2="520" stroke="#69d5f5" stroke-width="1" opacity="0.045"/>
<line x1="1360" y1="0" x2="1360" y2="520" stroke="#69d5f5" stroke-width="1" opacity="0.045"/>
<line x1="1440" y1="0" x2="1440" y2="520" stroke="#69d5f5" stroke-width="1" opacity="0.045"/>
<line x1="1520" y1="0" x2="1520" y2="520" stroke="#69d5f5" stroke-width="1" opacity="0.045"/>
<line x1="1600" y1="0" x2="1600" y2="520" stroke="#69d5f5" stroke-width="1" opacity="0.045"/>
<line x1="0" y1="0" x2="1600" y2="0" stroke="#69d5f5" stroke-width="1" opacity="0.045"/>
<line x1="0" y1="80" x2="1600" y2="80" stroke="#69d5f5" stroke-width="1" opacity="0.045"/>
<line x1="0" y1="160" x2="1600" y2="160" stroke="#69d5f5" stroke-width="1" opacity="0.045"/>
<line x1="0" y1="240" x2="1600" y2="240" stroke="#69d5f5" stroke-width="1" opacity="0.045"/>
<line x1="0" y1="320" x2="1600" y2="320" stroke="#69d5f5" stroke-width="1" opacity="0.045"/>
<line x1="0" y1="400" x2="1600" y2="400" stroke="#69d5f5" stroke-width="1" opacity="0.045"/>
<line x1="0" y1="480" x2="1600" y2="480" stroke="#69d5f5" stroke-width="1" opacity="0.045"/>
  </g>
  <g>
<path d="M640,160 L400,160 L400,400" fill="none" stroke="#69d5f5" stroke-width="1.4" opacity="0.17"/>
<path d="M480,400 L720,400 L720,0" fill="none" stroke="#69d5f5" stroke-width="1.4" opacity="0.16"/>
<path d="M720,0 L1040,0 L1040,80" fill="none" stroke="#69d5f5" stroke-width="1.4" opacity="0.16"/>
<path d="M1520,0 L640,0 L640,480" fill="none" stroke="#69d5f5" stroke-width="1.4" opacity="0.12"/>
<circle cx="640" cy="160" r="4" fill="#69d5f5" opacity="0.47"/>
<circle cx="400" cy="400" r="2" fill="#69d5f5" opacity="0.37"/>
<circle cx="560" cy="400" r="3" fill="#69d5f5" opacity="0.49"/>
<circle cx="320" cy="480" r="2" fill="#69d5f5" opacity="0.4"/>
<circle cx="560" cy="400" r="4" fill="#69d5f5" opacity="0.44"/>
<circle cx="400" cy="80" r="3" fill="#69d5f5" opacity="0.32"/>
<circle cx="160" cy="320" r="3" fill="#69d5f5" opacity="0.34"/>
<circle cx="480" cy="400" r="4" fill="#69d5f5" opacity="0.34"/>
<circle cx="720" cy="0" r="3" fill="#69d5f5" opacity="0.39"/>
<circle cx="1040" cy="80" r="2" fill="#69d5f5" opacity="0.45"/>
<circle cx="1520" cy="0" r="2" fill="#69d5f5" opacity="0.45"/>
<circle cx="640" cy="480" r="2" fill="#69d5f5" opacity="0.5"/>
  </g>
</svg>